<svg width="65" height="20" viewBox="0 0 65 20" fill="none" xmlns="http://www.w3.org/2000/svg">
<path d="M12.501 0V15.678H8.42897V13.9981C7.85647 14.7104 7.33772 15.1915 6.86736 15.4442C6.23841 15.7694 5.54227 15.9333 4.77086 15.9333C3.22269 15.9333 2.04005 15.3447 1.22295 14.1701C0.408547 12.9956 0 11.563 0 9.88039C0 7.99624 0.448865 6.55826 1.35466 5.56108C2.25507 4.56122 3.40277 4.06128 4.78968 4.06128C5.46969 4.06128 6.08252 4.17686 6.6362 4.40532C7.18721 4.63647 7.67639 4.97514 8.10644 5.43207V0H12.501ZM8.136 9.96909C8.136 9.07405 7.95054 8.41016 7.56887 7.97205C7.19258 7.53393 6.71415 7.31622 6.13896 7.31622C5.63096 7.31622 5.20898 7.52856 4.86494 7.94786C4.5209 8.36716 4.35157 9.07136 4.35157 10.0659C4.35157 10.9931 4.53165 11.6732 4.88106 12.1032C5.23586 12.5333 5.67397 12.7483 6.19271 12.7483C6.75178 12.7483 7.21408 12.5333 7.58231 12.0978C7.95323 11.657 8.136 10.9501 8.136 9.96909Z" fill="#F5F5F7"/>
<path d="M27.1227 15.678H23.0561V13.8396C22.4513 14.5948 21.8412 15.1351 21.223 15.4522C20.6048 15.7748 19.8468 15.9334 18.9491 15.9334C17.753 15.9334 16.815 15.5759 16.1323 14.8609C15.4523 14.146 15.1136 13.0386 15.1136 11.5495V4.32202H19.4867V10.5685C19.4867 11.2808 19.6184 11.7888 19.8818 12.0871C20.1479 12.3855 20.5161 12.536 20.9945 12.536C21.516 12.536 21.9406 12.3344 22.2712 11.9366C22.6045 11.5361 22.7685 10.8185 22.7685 9.78634V4.32202H27.1227V15.678V15.678Z" fill="#F5F5F7"/>
<path d="M29.7944 4.32199H33.8583V5.98037C34.447 5.28692 35.0329 4.79774 35.6296 4.50208C36.2236 4.20911 36.944 4.06396 37.7879 4.06396C38.6937 4.06396 39.4087 4.22523 39.9355 4.54508C40.465 4.86762 40.895 5.34336 41.231 5.98037C41.9137 5.23854 42.5373 4.73323 43.1044 4.46445C43.6662 4.19835 44.3596 4.06396 45.1875 4.06396C46.4077 4.06396 47.3592 4.42413 48.0419 5.15253C48.7273 5.87555 49.0687 7.00712 49.0687 8.54723V15.6807H44.7063V9.21112C44.7063 8.69775 44.6069 8.31339 44.408 8.06611C44.115 7.67638 43.7522 7.47749 43.3168 7.47749C42.8061 7.47749 42.3895 7.66294 42.075 8.03117C41.7605 8.40209 41.6073 8.99878 41.6073 9.81857V15.678H37.2423V9.42077C37.2423 8.92084 37.2127 8.58486 37.159 8.40478C37.0649 8.11987 36.9036 7.89141 36.6779 7.71401C36.4467 7.5393 36.1806 7.45061 35.8742 7.45061C35.3743 7.45061 34.9657 7.64144 34.6432 8.01505C34.3206 8.39403 34.1621 9.01491 34.1621 9.8777V15.6753H29.7997V4.32199H29.7944Z" fill="#F5F5F7"/>
<path d="M51.6839 20V4.32199H55.7586V6.00188C56.3257 5.29498 56.8391 4.81655 57.3095 4.56658C57.9438 4.23061 58.6453 4.06396 59.4167 4.06396C60.9353 4.06396 62.1099 4.64722 62.9431 5.80835C63.771 6.96949 64.1876 8.40746 64.1876 10.1196C64.1876 12.0064 63.736 13.4498 62.8303 14.4443C61.9245 15.4361 60.7795 15.9333 59.3979 15.9333C58.726 15.9333 58.1131 15.8204 57.5621 15.5947C57.0111 15.3635 56.5139 15.0249 56.0812 14.576V20H51.6839ZM56.0489 10.0309C56.0489 10.9286 56.2344 11.5979 56.616 12.0306C56.9923 12.4661 57.4708 12.6838 58.0459 12.6838C58.5539 12.6838 58.9759 12.4768 59.32 12.0548C59.664 11.6382 59.8333 10.9313 59.8333 9.93414C59.8333 9.01491 59.6533 8.34027 59.2958 7.90753C58.941 7.47211 58.5029 7.25708 57.9922 7.25708C57.4331 7.25708 56.9708 7.4748 56.6026 7.91022C56.2317 8.34834 56.0489 9.05523 56.0489 10.0309Z" fill="#F5F5F7"/>
</svg>
