<svg width="36" height="36" viewBox="0 0 36 36" fill="none" xmlns="http://www.w3.org/2000/svg">
<rect width="36" height="36" fill="#F5F5F7" fill-opacity="0.05"/>
<path fill-rule="evenodd" clip-rule="evenodd" d="M18.4166 27.5833H9.24996C8.78972 27.5833 8.41663 27.2102 8.41663 26.75V9.24996C8.41663 8.78972 8.78972 8.41663 9.24996 8.41663H26.75C27.2102 8.41663 27.5833 8.78972 27.5833 9.24996V26.75C27.5833 27.2102 27.2102 27.5833 26.75 27.5833H21.75V20.0833H23.8825C24.0938 20.0849 24.2729 19.928 24.2991 19.7183L24.6116 17.2183C24.6265 17.0991 24.5893 16.9794 24.5095 16.8897C24.4297 16.7999 24.315 16.749 24.195 16.75H21.75V15.6541C21.7509 14.8787 22.3795 14.2504 23.155 14.25H24.6666C24.8967 14.25 25.0833 14.0634 25.0833 13.8333V11.3333C25.0833 11.1032 24.8967 10.9166 24.6666 10.9166H23.155C20.5395 10.9194 18.4198 13.0387 18.4166 15.6541V16.75H16.3333C16.1032 16.75 15.9166 16.9365 15.9166 17.1666V19.6666C15.9166 19.8967 16.1032 20.0833 16.3333 20.0833H18.4166V27.5833Z" stroke="#F5F5F7" stroke-linecap="round" stroke-linejoin="round"/>
</svg>
