<svg width="36" height="36" viewBox="0 0 36 36" fill="none" xmlns="http://www.w3.org/2000/svg">
<rect width="36" height="36" fill="#F5F5F7" fill-opacity="0.05"/>
<path d="M13.4167 26.75V27.25C13.6928 27.25 13.9167 27.0262 13.9167 26.75H13.4167ZM9.25 26.75H8.75C8.75 27.0262 8.97386 27.25 9.25 27.25V26.75ZM9.25 15.9167V15.4167C8.97386 15.4167 8.75 15.6406 8.75 15.9167H9.25ZM13.4167 15.9167H13.9167C13.9167 15.6406 13.6928 15.4167 13.4167 15.4167V15.9167ZM19.25 26.75V27.25C19.5261 27.25 19.75 27.0262 19.75 26.75H19.25ZM15.0833 26.75H14.5833C14.5833 27.0262 14.8072 27.25 15.0833 27.25V26.75ZM15.0833 15.9167V15.4167C14.8072 15.4167 14.5833 15.6406 14.5833 15.9167H15.0833ZM19.25 15.9167H19.75C19.75 15.6406 19.5261 15.4167 19.25 15.4167V15.9167ZM19.25 17.1542H18.75C18.75 17.349 18.8631 17.526 19.0398 17.6079C19.2165 17.6898 19.4247 17.6616 19.5733 17.5356L19.25 17.1542ZM22.575 15.9084L22.575 15.4083L22.568 15.4084L22.575 15.9084ZM26.75 26.75V27.25C27.0261 27.25 27.25 27.0262 27.25 26.75H26.75ZM22.5833 26.75H22.0833C22.0833 27.0262 22.3072 27.25 22.5833 27.25V26.75ZM13.4167 26.25H9.25V27.25H13.4167V26.25ZM9.75 26.75V15.9167H8.75V26.75H9.75ZM9.25 16.4167H13.4167V15.4167H9.25V16.4167ZM12.9167 15.9167V26.75H13.9167V15.9167H12.9167ZM20.9167 18.75C19.72 18.75 18.75 19.7201 18.75 20.9167H19.75C19.75 20.2724 20.2723 19.75 20.9167 19.75V18.75ZM18.75 20.9167V26.75H19.75V20.9167H18.75ZM19.25 26.25H15.0833V27.25H19.25V26.25ZM15.5833 26.75V15.9167H14.5833V26.75H15.5833ZM15.0833 16.4167H19.25V15.4167H15.0833V16.4167ZM18.75 15.9167V17.1542H19.75V15.9167H18.75ZM19.5733 17.5356C20.415 16.8222 21.4787 16.4237 22.582 16.4083L22.568 15.4084C21.2327 15.427 19.9455 15.9093 18.9267 16.7728L19.5733 17.5356ZM22.575 16.4084C23.676 16.4084 24.572 16.8119 25.2024 17.576C25.842 18.3512 26.25 19.5495 26.25 21.2042H27.25C27.25 19.3964 26.8047 17.9468 25.9738 16.9397C25.1339 15.9216 23.9424 15.4084 22.575 15.4084V16.4084ZM26.25 21.2042V26.75H27.25V21.2042H26.25ZM26.75 26.25H22.5833V27.25H26.75V26.25ZM23.0833 26.75V20.9167H22.0833V26.75H23.0833ZM23.0833 20.9167C23.0833 19.7201 22.1133 18.75 20.9167 18.75V19.75C21.561 19.75 22.0833 20.2724 22.0833 20.9167H23.0833ZM12.9167 12.1667C12.9167 13.0412 12.2078 13.75 11.3333 13.75V14.75C12.7601 14.75 13.9167 13.5934 13.9167 12.1667H12.9167ZM11.3333 13.75C10.4589 13.75 9.75 13.0412 9.75 12.1667H8.75C8.75 13.5934 9.9066 14.75 11.3333 14.75V13.75ZM9.75 12.1667C9.75 11.2923 10.4589 10.5834 11.3333 10.5834V9.58337C9.9066 9.58337 8.75 10.74 8.75 12.1667H9.75ZM11.3333 10.5834C11.7533 10.5834 12.156 10.7502 12.4529 11.0471L13.16 10.34C12.6756 9.85555 12.0185 9.58337 11.3333 9.58337V10.5834ZM12.4529 11.0471C12.7499 11.3441 12.9167 11.7468 12.9167 12.1667H13.9167C13.9167 11.4816 13.6445 10.8245 13.16 10.34L12.4529 11.0471Z" fill="#F5F5F7"/>
</svg>
