<svg width="99" height="16" viewBox="0 0 99 16" fill="none" xmlns="http://www.w3.org/2000/svg">
<path d="M2.51626 15.1824C2.34662 15.0127 2.2618 14.8148 2.2618 14.5745V2.33249H0.424088C0.296862 2.33249 0.197908 2.29008 0.127226 2.20526C0.0424088 2.12044 0 2.02149 0 1.9084V0.424088C0 0.296862 0.0424088 0.197908 0.127226 0.127226C0.212044 0.0424088 0.310998 0 0.424088 0H3.81679C4.05711 0 4.26915 0.0848177 4.42465 0.254453C4.59429 0.424088 4.67911 0.621996 4.67911 0.862313V13.1043H6.51682C6.64405 13.1043 6.743 13.1467 6.81368 13.2316C6.8985 13.3164 6.94091 13.4153 6.94091 13.5284V15.0269C6.94091 15.1541 6.8985 15.253 6.81368 15.3237C6.72887 15.4085 6.62991 15.4509 6.51682 15.4509H3.12412C2.89794 15.4368 2.68589 15.352 2.51626 15.1824Z" fill="#F5F5F7"/>
<path d="M8.9886 15.2389C8.90379 15.0976 8.87551 14.9421 8.91792 14.7724L10.063 9.76821C10.0912 9.62684 10.1478 9.51375 10.2467 9.4148C10.3457 9.31585 10.4446 9.27344 10.5719 9.27344H12.5651C12.6923 9.27344 12.8054 9.32998 12.8902 9.42894C12.975 9.52789 13.0174 9.65512 13.0174 9.78234C13.0174 9.89543 13.0033 10.0085 12.9609 10.1216L10.6284 15.4369H9.34201C9.18651 15.4369 9.07342 15.3662 8.9886 15.2389Z" fill="#F5F5F7"/>
<path d="M10.5335 7.08223C10.4487 6.99741 10.4062 6.89845 10.4062 6.78536V4.29738C10.4062 4.17015 10.4487 4.0712 10.5335 4.00052C10.6183 3.9157 10.7172 3.87329 10.8303 3.87329H12.5691C12.6963 3.87329 12.7953 3.9157 12.866 4.00052C12.9508 4.08534 12.9932 4.18429 12.9932 4.29738V6.77123C12.9932 6.89845 12.9508 6.99741 12.866 7.06809C12.7811 7.15291 12.6822 7.19532 12.5691 7.19532H10.8445C10.7172 7.20945 10.6183 7.16704 10.5335 7.08223Z" fill="#F5F5F7"/>
<path d="M17.9684 14.4755C17.3182 13.8253 16.993 12.9771 16.993 11.931V6.14925H15.6077C15.4805 6.14925 15.3815 6.10685 15.3108 6.02203C15.226 5.93721 15.1836 5.83826 15.1836 5.72517V4.31154C15.1836 4.18431 15.226 4.08536 15.3108 4.01468C15.3956 3.92986 15.4946 3.88745 15.6077 3.88745H16.993V1.71047C16.993 1.58324 17.0354 1.48428 17.1203 1.4136C17.2051 1.32879 17.304 1.28638 17.4171 1.28638H18.9863C19.1135 1.28638 19.2124 1.32879 19.2831 1.4136C19.3679 1.49842 19.4103 1.59737 19.4103 1.71047V3.88745H22.8172C22.9444 3.88745 23.0434 3.92986 23.114 4.01468C23.1989 4.0995 23.2413 4.19845 23.2413 4.31154V5.7393C23.2413 5.86653 23.1989 5.96548 23.114 6.03616C23.0292 6.12098 22.9303 6.16339 22.8172 6.16339H19.4103V11.832C19.4103 12.242 19.5234 12.553 19.7637 12.7933C20.0041 13.0336 20.3151 13.1608 20.6967 13.1608L22.8172 13.175C22.9444 13.175 23.0434 13.2174 23.114 13.3022C23.1989 13.387 23.2413 13.486 23.2413 13.5991V15.0127C23.2413 15.1399 23.1989 15.2389 23.114 15.3096C23.0292 15.3944 22.9303 15.4368 22.8172 15.4368H20.513C19.4669 15.4368 18.6187 15.1117 17.9684 14.4755Z" fill="#F5F5F7"/>
<path d="M27.5388 14.4755C26.8885 13.8253 26.5633 12.9771 26.5633 11.931V6.14925H25.178C25.0508 6.14925 24.9518 6.10685 24.8811 6.02203C24.7963 5.93721 24.7539 5.83826 24.7539 5.72517V4.31154C24.7539 4.18431 24.7963 4.08536 24.8811 4.01468C24.966 3.92986 25.0649 3.88745 25.178 3.88745H26.5633V1.71047C26.5633 1.58324 26.6058 1.48428 26.6906 1.4136C26.7754 1.32879 26.8743 1.28638 26.9874 1.28638H28.5566C28.6838 1.28638 28.7827 1.32879 28.8534 1.4136C28.9382 1.49842 28.9807 1.59737 28.9807 1.71047V3.88745H32.3875C32.5147 3.88745 32.6137 3.92986 32.6844 4.01468C32.7692 4.0995 32.8116 4.19845 32.8116 4.31154V5.7393C32.8116 5.86653 32.7692 5.96548 32.6844 6.03616C32.5995 6.12098 32.5006 6.16339 32.3875 6.16339H28.9807V11.832C28.9807 12.242 29.0937 12.553 29.3341 12.7933C29.5744 13.0336 29.8854 13.1608 30.2671 13.1608L32.3875 13.175C32.5147 13.175 32.6137 13.2174 32.6844 13.3022C32.7692 13.387 32.8116 13.486 32.8116 13.5991V15.0127C32.8116 15.1399 32.7692 15.2389 32.6844 15.3096C32.5995 15.3944 32.5006 15.4368 32.3875 15.4368H30.0833C29.0372 15.4368 28.189 15.1117 27.5388 14.4755Z" fill="#F5F5F7"/>
<path d="M36.6139 15.1824C36.4443 15.0127 36.3595 14.8148 36.3595 14.5745V2.33249H34.5217C34.3945 2.33249 34.2956 2.29008 34.2249 2.20526C34.1401 2.12044 34.0977 2.02149 34.0977 1.9084V0.424088C34.0977 0.296862 34.1401 0.197908 34.2249 0.127226C34.3097 0.0424088 34.4087 0 34.5217 0H37.9144C38.1548 0 38.3668 0.0848177 38.5223 0.254453C38.6919 0.424088 38.7768 0.621996 38.7768 0.862313V13.1043H40.6145C40.7417 13.1043 40.8407 13.1467 40.9113 13.2316C40.9962 13.3164 41.0386 13.4153 41.0386 13.5284V15.0269C41.0386 15.1541 40.9962 15.253 40.9113 15.3237C40.8265 15.4085 40.7276 15.4509 40.6145 15.4509H37.2218C36.9815 15.4368 36.7835 15.352 36.6139 15.1824Z" fill="#F5F5F7"/>
<path d="M45.0101 14.7866C44.275 14.3625 43.6955 13.7687 43.2714 13.0337C42.8473 12.2986 42.6211 11.4928 42.6211 10.6164V8.43937C42.6211 7.56292 42.8331 6.75715 43.2714 6.02206C43.6955 5.28698 44.2892 4.69325 45.0101 4.26916C45.7452 3.84508 46.551 3.6189 47.4133 3.6189C48.2897 3.6189 49.0955 3.83094 49.8165 4.26916C50.5515 4.69325 51.1311 5.28698 51.5552 6.02206C51.9793 6.75715 52.2055 7.56292 52.2055 8.43937V9.79645C52.2055 10.0368 52.1207 10.2488 51.951 10.4184C51.7814 10.5881 51.5835 10.6729 51.3432 10.6729H45.0384V10.7719C45.0384 11.4363 45.2646 11.9876 45.7311 12.4541C46.1976 12.9206 46.7489 13.1467 47.4133 13.1467H50.6222C50.7495 13.1467 50.8484 13.1892 50.9191 13.274C51.0039 13.3588 51.0463 13.4577 51.0463 13.5708V15.0269C51.0463 15.1541 51.0039 15.2531 50.9191 15.3237C50.8343 15.4085 50.7353 15.451 50.6222 15.451H47.4133C46.551 15.4368 45.7452 15.2248 45.0101 14.7866ZM49.8023 8.48177V8.298C49.8023 7.6336 49.5761 7.08228 49.1096 6.61579C48.6431 6.14929 48.0918 5.92311 47.4274 5.92311C46.763 5.92311 46.2117 6.14929 45.7452 6.61579C45.2787 7.08228 45.0525 7.64773 45.0525 8.298V8.48177H49.8023Z" fill="#F5F5F7"/>
<path d="M56.9125 15.0551C56.1774 14.6311 55.5978 14.0373 55.1737 13.3022C54.7496 12.5672 54.5234 11.7614 54.5234 10.8849V8.43937C54.5234 7.56292 54.7355 6.75715 55.1737 6.02206C55.5978 5.28698 56.1915 4.69325 56.9125 4.26916C57.6476 3.84508 58.4533 3.6189 59.3156 3.6189C59.9942 3.6189 60.6303 3.76026 61.2523 4.02885C61.8743 4.29744 62.3973 4.69325 62.8497 5.18802C62.9487 5.28698 62.9911 5.38593 62.9911 5.51316C62.9911 5.65452 62.9345 5.79588 62.8073 5.92311L61.945 6.78542C61.846 6.88438 61.7471 6.92678 61.6198 6.92678C61.4926 6.92678 61.3795 6.87024 61.2806 6.74301C60.7575 6.21997 60.1073 5.95138 59.3298 5.95138C58.6654 5.95138 58.1141 6.17756 57.6476 6.64406C57.1811 7.11056 56.9549 7.66187 56.9549 8.32628V10.9698C56.9549 11.6342 57.1811 12.1855 57.6476 12.652C58.1141 13.1185 58.6654 13.3447 59.3298 13.3447C60.1073 13.3447 60.7575 13.0761 61.2806 12.553C61.3937 12.4258 61.5068 12.3692 61.6198 12.3692C61.7471 12.3692 61.846 12.4117 61.945 12.5106L62.8073 13.3729C62.9345 13.5002 62.9911 13.6274 62.9911 13.7829C62.9911 13.9101 62.9487 14.0091 62.8497 14.108C62.4115 14.6028 61.8743 14.9986 61.2523 15.2672C60.6303 15.5358 59.9942 15.6771 59.3156 15.6771C58.4392 15.7054 57.6334 15.4792 56.9125 15.0551Z" fill="#F5F5F7"/>
<path d="M67.2328 15.0693C66.4977 14.6452 65.9181 14.0656 65.494 13.3447C65.0699 12.6237 64.8438 11.8321 64.8438 10.9839V8.34041C64.8438 7.49224 65.0558 6.71474 65.494 5.97965C65.9181 5.2587 66.5118 4.67912 67.2328 4.25503C67.9679 3.83094 68.7736 3.6189 69.636 3.6189C70.5124 3.6189 71.3182 3.83094 72.0391 4.25503C72.7742 4.67912 73.3538 5.2587 73.7779 5.97965C74.202 6.7006 74.4281 7.49224 74.4281 8.34041V10.9839C74.4281 11.8321 74.2161 12.6096 73.7779 13.3447C73.3538 14.0656 72.7601 14.6452 72.0391 15.0693C71.304 15.4934 70.4983 15.7054 69.636 15.7054C68.7595 15.7054 67.9537 15.4934 67.2328 15.0693ZM71.3182 12.6661C71.7847 12.1996 72.0108 11.6483 72.0108 10.9839V8.34041C72.0108 7.67601 71.7847 7.12469 71.3182 6.6582C70.8517 6.1917 70.2862 5.96552 69.636 5.96552C68.9715 5.96552 68.4202 6.1917 67.9537 6.6582C67.4872 7.12469 67.2611 7.67601 67.2611 8.34041V10.9839C67.2611 11.6483 67.4872 12.1996 67.9537 12.6661C68.4202 13.1326 68.9715 13.3588 69.636 13.3588C70.3004 13.3588 70.8517 13.1326 71.3182 12.6661Z" fill="#F5F5F7"/>
<path d="M79.1344 15.0693C78.4558 14.6452 77.9045 14.0797 77.4946 13.3729C77.0846 12.6661 76.8867 11.8886 76.8867 11.0687V8.25558C76.8867 7.43568 77.0846 6.67232 77.4946 5.95137C77.9045 5.24456 78.4417 4.66497 79.1344 4.25502C79.8129 3.83093 80.5622 3.61889 81.3679 3.61889C81.8768 3.61889 82.3716 3.7037 82.8522 3.8592C83.3329 4.0147 83.7428 4.25502 84.0962 4.53774V0.424088C84.0962 0.296862 84.1386 0.197908 84.2234 0.127226C84.3083 0.0424088 84.4072 0 84.5203 0H86.0894C86.2167 0 86.3156 0.0424088 86.3863 0.127226C86.4711 0.212044 86.5135 0.310998 86.5135 0.424088V15.0127C86.5135 15.14 86.4711 15.2389 86.3863 15.3096C86.3015 15.3944 86.2025 15.4368 86.0894 15.4368H84.7748C84.6475 15.4368 84.5486 15.3944 84.4779 15.3096C84.3931 15.2248 84.3507 15.1258 84.3507 15.0127V14.0515C83.9831 14.6028 83.5449 15.0127 83.036 15.2954C82.5271 15.564 81.9616 15.7054 81.3396 15.7054C80.548 15.7054 79.8129 15.4934 79.1344 15.0693ZM83.3611 12.6802C83.8276 12.2137 84.0679 11.6624 84.0679 10.998V8.32627C84.0679 7.66186 83.8276 7.11055 83.3611 6.64405C82.8946 6.17755 82.3292 5.95137 81.6648 5.95137C81.0004 5.95137 80.4491 6.17755 79.9826 6.64405C79.5161 7.11055 79.2899 7.676 79.2899 8.32627V11.0122C79.2899 11.6766 79.5161 12.2279 79.9826 12.6944C80.4491 13.1609 81.0004 13.3871 81.6648 13.3871C82.3292 13.3871 82.8946 13.1467 83.3611 12.6802Z" fill="#F5F5F7"/>
<path d="M91.7601 14.7866C91.025 14.3625 90.4455 13.7687 90.0214 13.0337C89.5973 12.2986 89.3711 11.4928 89.3711 10.6164V8.43937C89.3711 7.56292 89.5831 6.75715 90.0214 6.02206C90.4455 5.28698 91.0392 4.69325 91.7601 4.26916C92.4952 3.84508 93.301 3.6189 94.1633 3.6189C95.0397 3.6189 95.8455 3.83094 96.5665 4.26916C97.3015 4.69325 97.8811 5.28698 98.3052 6.02206C98.7293 6.75715 98.9555 7.56292 98.9555 8.43937V9.79645C98.9555 10.0368 98.8707 10.2488 98.701 10.4184C98.5314 10.5881 98.3335 10.6729 98.079 10.6729H91.7743V10.7719C91.7743 11.4363 92.0004 11.9876 92.4669 12.4541C92.9334 12.9206 93.4847 13.1467 94.1492 13.1467H97.3581C97.4853 13.1467 97.5843 13.1892 97.655 13.274C97.7398 13.3588 97.7822 13.4577 97.7822 13.5708V15.0269C97.7822 15.1541 97.7398 15.2531 97.655 15.3237C97.5701 15.4085 97.4712 15.451 97.3581 15.451H94.1492C93.301 15.4368 92.4952 15.2248 91.7601 14.7866ZM96.5523 8.48177V8.298C96.5523 7.6336 96.3261 7.08228 95.8596 6.61579C95.3931 6.14929 94.8277 5.92311 94.1774 5.92311C93.513 5.92311 92.9617 6.14929 92.4952 6.61579C92.0287 7.08228 91.8025 7.64773 91.8025 8.298V8.48177H96.5523Z" fill="#F5F5F7"/>
</svg>
