<svg width="249" height="46" viewBox="0 0 249 46" fill="none" xmlns="http://www.w3.org/2000/svg">
<path fill-rule="evenodd" clip-rule="evenodd" d="M0.545715 15.6056C2.08306 15.1787 4.06674 14.7814 6.49406 14.4123C8.92138 14.0433 11.4707 13.8594 14.1419 13.8594C16.8521 13.8594 19.1092 14.2001 20.9092 14.8778C22.7093 15.5567 24.1354 16.5186 25.1875 17.7595C26.2397 19.0029 26.9876 20.4765 27.4339 22.1855C27.8775 23.8944 28.1014 25.7962 28.1014 27.8922V45.1862H19.0582V28.9389C19.0582 26.1447 18.6736 24.1644 17.9056 22.9994C17.1362 21.8344 15.6994 21.2532 13.5964 21.2532C12.949 21.2532 12.2615 21.2828 11.5323 21.3406C10.8045 21.3985 10.1558 21.4667 9.5902 21.5438V45.1848H0.545715V15.6056Z" fill="#F5F5F7"/>
<path fill-rule="evenodd" clip-rule="evenodd" d="M53.8353 26.7849C53.7938 26.0482 53.6624 25.3294 53.4399 24.631C53.2174 23.9328 52.873 23.3117 52.4079 22.7678C51.9428 22.2252 51.3544 21.7777 50.6467 21.4279C49.939 21.0781 49.0584 20.9046 48.0063 20.9046C46.9943 20.9046 46.1245 21.0704 45.3967 21.3996C44.6689 21.7301 44.0617 22.166 43.5765 22.7099C43.0913 23.2539 42.716 23.8839 42.4533 24.6027C42.1893 25.3216 41.9976 26.0494 41.877 26.7862H53.8353V26.7849ZM32.5926 30.1039C32.5926 27.3868 33.0269 25.0091 33.8967 22.971C34.7666 20.9328 35.9085 19.2355 37.3266 17.8763C38.742 16.5184 40.3705 15.4897 42.2121 14.7902C44.0537 14.0919 45.9449 13.7422 47.887 13.7422C52.4186 13.7422 55.9986 15.0718 58.6297 17.731C61.2594 20.3902 62.5742 24.3019 62.5742 29.4634C62.5742 29.9687 62.5541 30.5218 62.5139 31.1235C62.4737 31.7253 62.4322 32.2589 62.3933 32.7244H41.8783C42.0794 34.5092 42.9493 35.9276 44.4879 36.9742C46.0253 38.0223 48.0894 38.5469 50.6775 38.5469C52.3369 38.5469 53.9653 38.4016 55.5643 38.1097C57.162 37.8192 58.4675 37.4604 59.4781 37.0321L60.6924 44.0774C60.2072 44.3102 59.5598 44.5431 58.7503 44.7757C57.9407 45.0084 57.04 45.213 56.0495 45.3878C55.0577 45.5626 53.9948 45.7079 52.8636 45.825C51.7297 45.9407 50.5971 46 49.4645 46C46.5909 46 44.0939 45.5922 41.9695 44.777C39.8451 43.9617 38.0852 42.8468 36.69 41.4299C35.2933 40.0128 34.2626 38.3347 33.5952 36.393C32.9263 34.4513 32.5926 32.3553 32.5926 30.1039Z" fill="#F5F5F7"/>
<path fill-rule="evenodd" clip-rule="evenodd" d="M67.0666 6.92974L76.1097 5.53198V15.5863H86.9731V22.8065H76.1097V32.5497C76.1097 34.3743 76.4435 35.83 77.111 36.9165C77.7784 38.0044 79.1228 38.5469 81.1467 38.5469C82.1171 38.5469 83.1196 38.4596 84.1503 38.2847C85.1824 38.1098 86.1233 37.8681 86.9731 37.5569L88.2477 44.3103C87.1553 44.7385 85.941 45.1063 84.6061 45.4162C83.2711 45.726 81.6319 45.8816 79.6897 45.8816C77.2209 45.8816 75.1782 45.5615 73.5591 44.9211C71.94 44.2808 70.6466 43.3884 69.6749 42.2426C68.7045 41.0982 68.0263 39.7093 67.6416 38.079C67.2569 36.4485 67.0652 34.6431 67.0652 32.664V6.92974H67.0666Z" fill="#F5F5F7"/>
<path fill-rule="evenodd" clip-rule="evenodd" d="M110.333 28.9387C110.333 26.1446 109.957 24.1643 109.209 22.9992C108.46 21.8342 107.176 21.253 105.356 21.253C104.789 21.253 104.203 21.2826 103.596 21.3405C102.989 21.3983 102.402 21.4665 101.835 21.5436V45.1846H92.7918V15.6054C93.5598 15.4113 94.4605 15.2081 95.4926 14.9933C96.5246 14.7812 97.617 14.5857 98.7696 14.4108C99.9223 14.236 101.106 14.1009 102.32 14.0032C103.534 13.9068 104.727 13.8579 105.901 13.8579C108.208 13.8579 110.079 14.1395 111.516 14.7027C112.952 15.266 114.135 15.9359 115.067 16.7113C116.361 15.8189 117.848 15.1206 119.527 14.6153C121.205 14.1112 122.753 13.8579 124.17 13.8579C126.719 13.8579 128.813 14.1987 130.452 14.8763C132.091 15.5553 133.395 16.5171 134.366 17.758C135.336 19.0014 136.005 20.4751 136.368 22.184C136.733 23.8929 136.915 25.7948 136.915 27.8909V45.1846H127.872V28.9387C127.872 26.1446 127.497 24.1643 126.749 22.9992C126 21.8342 124.716 21.253 122.895 21.253C122.41 21.253 121.732 21.37 120.862 21.6028C119.991 21.8355 119.274 22.1274 118.707 22.4759C118.99 23.3696 119.172 24.3096 119.252 25.2997C119.334 26.2898 119.374 27.3481 119.374 28.4733V45.1846H110.333V28.9387Z" fill="#F5F5F7"/>
<path fill-rule="evenodd" clip-rule="evenodd" d="M161.986 26.7849C161.945 26.0482 161.814 25.3294 161.592 24.631C161.369 23.9328 161.025 23.3117 160.56 22.7678C160.095 22.2252 159.508 21.7777 158.8 21.4279C158.092 21.0781 157.212 20.9046 156.159 20.9046C155.147 20.9046 154.278 21.0704 153.55 21.3996C152.822 21.7301 152.215 22.166 151.728 22.7099C151.243 23.2539 150.869 23.8839 150.606 24.6027C150.342 25.3216 150.151 26.0494 150.029 26.7862H161.986V26.7849ZM140.744 30.1039C140.744 27.3868 141.179 25.0091 142.05 22.971C142.92 20.9328 144.062 19.2355 145.478 17.8763C146.894 16.5184 148.522 15.4897 150.365 14.7902C152.205 14.0919 154.098 13.7422 156.04 13.7422C160.57 13.7422 164.152 15.0718 166.783 17.731C169.411 20.3902 170.727 24.3019 170.727 29.4634C170.727 29.9687 170.707 30.5218 170.667 31.1235C170.627 31.7253 170.585 32.2589 170.545 32.7244H150.031C150.234 34.5092 151.104 35.9276 152.641 36.9742C154.178 38.0223 156.242 38.5469 158.832 38.5469C160.491 38.5469 162.12 38.4016 163.719 38.1097C165.316 37.8192 166.622 37.4604 167.633 37.0321L168.847 44.0774C168.362 44.3102 167.713 44.5431 166.905 44.7757C166.095 45.0084 165.194 45.213 164.204 45.3878C163.212 45.5626 162.149 45.7079 161.017 45.825C159.884 45.9407 158.75 46 157.618 46C154.744 46 152.247 45.5922 150.122 44.777C147.998 43.9617 146.238 42.8468 144.843 41.4299C143.446 40.0128 142.414 38.3347 141.748 36.393C141.078 34.4513 140.744 32.3553 140.744 30.1039Z" fill="#F5F5F7"/>
<path fill-rule="evenodd" clip-rule="evenodd" d="M183.227 29.6383C183.227 32.3168 183.854 34.4707 185.108 36.1012C186.362 37.7315 188.223 38.5468 190.692 38.5468C191.502 38.5468 192.25 38.5173 192.939 38.4595C193.626 38.4003 194.192 38.3335 194.638 38.255V22.4759C194.071 22.1262 193.333 21.8356 192.423 21.6028C191.513 21.3701 190.592 21.2531 189.66 21.2531C185.371 21.2531 183.227 24.0485 183.227 29.6383ZM203.681 44.1958C202.872 44.4285 201.94 44.6523 200.889 44.8657C199.837 45.0792 198.734 45.2631 197.582 45.4187C196.429 45.5743 195.255 45.7003 194.062 45.798C192.868 45.8944 191.726 45.9433 190.632 45.9433C188.001 45.9433 185.655 45.5743 183.593 44.8374C181.529 44.1006 179.789 43.0424 178.373 41.665C176.957 40.2879 175.874 38.6176 175.126 36.658C174.377 34.6983 174.003 32.4943 174.003 30.0484C174.003 27.5642 174.327 25.3228 174.974 23.3233C175.621 21.3251 176.552 19.6264 177.766 18.2287C178.981 16.8309 180.467 15.7636 182.227 15.0255C183.987 14.2887 186 13.9197 188.265 13.9197C189.518 13.9197 190.641 14.0367 191.633 14.2694C192.624 14.5022 193.626 14.8327 194.638 15.2596V1.39775L203.681 0V44.1958Z" fill="#F5F5F7"/>
<path fill-rule="evenodd" clip-rule="evenodd" d="M218.376 5.12424C218.376 6.71616 217.84 7.96861 216.768 8.88031C215.696 9.79328 214.432 10.2485 212.975 10.2485C211.518 10.2485 210.253 9.792 209.182 8.88031C208.109 7.96861 207.573 6.71616 207.573 5.12424C207.573 3.53232 208.109 2.28116 209.182 1.36818C210.253 0.456488 211.518 0 212.975 0C214.432 0 215.696 0.456488 216.768 1.36818C217.84 2.28116 218.376 3.53232 218.376 5.12424Z" fill="#F5F5F7"/>
<path fill-rule="evenodd" clip-rule="evenodd" d="M217.526 45.1847H208.483V16.9171L217.526 15.5708V45.1847Z" fill="#F5F5F7"/>
<path fill-rule="evenodd" clip-rule="evenodd" d="M235.28 39.1294C236.169 39.1294 237.02 39.1102 237.829 39.0702C238.637 39.0316 239.286 38.9738 239.771 38.8966V32.3169C239.407 32.2396 238.861 32.1613 238.132 32.084C237.404 32.0069 236.735 31.967 236.128 31.967C235.279 31.967 234.48 32.0172 233.73 32.1124C232.981 32.2089 232.324 32.3939 231.758 32.6652C231.191 32.938 230.746 33.3056 230.423 33.7711C230.098 34.2366 229.937 34.8191 229.937 35.5186C229.937 36.8778 230.412 37.8192 231.363 38.3424C232.315 38.8671 233.621 39.1294 235.28 39.1294ZM234.551 13.7422C237.221 13.7422 239.446 14.0341 241.227 14.6153C243.007 15.1978 244.433 16.0323 245.505 17.1189C246.576 18.2055 247.335 19.5261 247.781 21.0781C248.226 22.6315 248.449 24.3584 248.449 26.2603V44.3115C247.154 44.5828 245.354 44.9043 243.047 45.2722C240.742 45.6412 237.948 45.8262 234.671 45.8262C232.609 45.8262 230.736 45.6514 229.058 45.3029C227.379 44.9531 225.932 44.3809 224.718 43.585C223.504 42.7903 222.572 41.7514 221.926 40.4693C221.279 39.1885 220.956 37.6159 220.956 35.7526C220.956 33.9678 221.33 32.4544 222.079 31.2109C222.827 29.9687 223.828 28.9787 225.083 28.2418C226.336 27.5051 227.773 26.9713 229.392 26.6409C231.01 26.3117 232.689 26.1458 234.429 26.1458C235.602 26.1458 236.644 26.1947 237.555 26.2911C238.464 26.3888 239.203 26.5149 239.77 26.6693V25.8539C239.77 24.379 239.305 23.196 238.373 22.3023C237.442 21.4099 235.824 20.9624 233.519 20.9624C231.98 20.9624 230.463 21.0704 228.966 21.2826C227.469 21.4961 226.174 21.7982 225.081 22.1853L223.929 15.1978C224.454 15.0435 225.112 14.8776 225.902 14.7027C226.691 14.5279 227.549 14.3736 228.481 14.2373C229.411 14.1022 230.392 13.9852 231.425 13.8875C232.457 13.7911 233.499 13.7422 234.551 13.7422Z" fill="#F5F5F7"/>
</svg>
