<svg width="36" height="36" viewBox="0 0 36 36" fill="none" xmlns="http://www.w3.org/2000/svg">
<rect width="36" height="36" fill="#F5F5F7" fill-opacity="0.05"/>
<path d="M27.5834 13.7825L27.0834 13.7823V13.7825H27.5834ZM24.7184 10.9166L24.7184 11.4166L24.7184 11.4166L24.7184 10.9166ZM11.2809 10.9166L11.2809 10.4166L11.2807 10.4166L11.2809 10.9166ZM8.41669 13.7825L8.91669 13.7825L8.91669 13.7823L8.41669 13.7825ZM8.41669 21.3833L8.91669 21.3836V21.3833H8.41669ZM11.2809 24.25L11.2807 24.75H11.2809V24.25ZM24.7184 24.25L24.7184 23.75H24.7184V24.25ZM27.5834 21.3833L27.0834 21.3833L27.0834 21.3836L27.5834 21.3833ZM15.9167 20.8658H15.4167C15.4167 21.0485 15.5163 21.2166 15.6766 21.3044C15.8368 21.3921 16.0322 21.3854 16.1861 21.287L15.9167 20.8658ZM15.9167 13.6491L16.1862 13.228C16.0323 13.1295 15.8369 13.1228 15.6766 13.2105C15.5163 13.2983 15.4167 13.4664 15.4167 13.6491H15.9167ZM21.5575 17.2583L21.8269 17.6795C21.9706 17.5876 22.0575 17.4289 22.0575 17.2583C22.0575 17.0878 21.9706 16.929 21.827 16.8371L21.5575 17.2583ZM28.0834 13.7826C28.0836 12.89 27.7292 12.0338 27.0981 11.4026L26.3909 12.1096C26.8344 12.5532 27.0835 13.155 27.0834 13.7823L28.0834 13.7826ZM27.0981 11.4026C26.467 10.7713 25.611 10.4166 24.7184 10.4166L24.7184 11.4166C25.3457 11.4166 25.9474 11.6659 26.3909 12.1096L27.0981 11.4026ZM24.7184 10.4166H11.2809V11.4166H24.7184V10.4166ZM11.2807 10.4166C10.3883 10.4169 9.53246 10.7717 8.90158 11.4029L9.60889 12.1098C10.0523 11.6662 10.6538 11.4168 11.281 11.4166L11.2807 10.4166ZM8.90158 11.4029C8.2707 12.0341 7.91643 12.8902 7.91669 13.7826L8.91669 13.7823C8.91651 13.1551 9.1655 12.5535 9.60889 12.1098L8.90158 11.4029ZM7.91669 13.7825V21.3833H8.91669V13.7825H7.91669ZM7.91669 21.383C7.91617 22.2756 8.27033 23.1319 8.90123 23.7633L9.60865 23.0565C9.16524 22.6127 8.91632 22.0109 8.91669 21.3836L7.91669 21.383ZM8.90123 23.7633C9.53214 24.3948 10.3881 24.7497 11.2807 24.75L11.281 23.75C10.6536 23.7498 10.0521 23.5003 9.60865 23.0565L8.90123 23.7633ZM11.2809 24.75H24.7184V23.75H11.2809V24.75ZM24.7184 24.75C25.6111 24.75 26.4673 24.3952 27.0985 23.7637L26.3911 23.0568C25.9476 23.5006 25.3458 23.75 24.7184 23.75L24.7184 24.75ZM27.0985 23.7637C27.7296 23.1322 28.0839 22.2758 28.0834 21.383L27.0834 21.3836C27.0837 22.0111 26.8347 22.613 26.3911 23.0568L27.0985 23.7637ZM28.0834 21.3833V13.7825H27.0834V21.3833H28.0834ZM16.4167 20.8658V13.6491H15.4167V20.8658H16.4167ZM15.6472 14.0703L21.288 17.6795L21.827 16.8371L16.1862 13.228L15.6472 14.0703ZM21.2881 16.8371L15.6473 20.4446L16.1861 21.287L21.8269 17.6795L21.2881 16.8371Z" fill="#F5F5F7"/>
</svg>
